<svg xmlns="http://www.w3.org/2000/svg" xmlns:xlink="http://www.w3.org/1999/xlink" width="500" zoomAndPan="magnify" viewBox="0 0 375 374.999991" height="500" preserveAspectRatio="xMidYMid meet" version="1.2"><defs/><g id="58cc4e4531"><g style="fill:#ffffff;fill-opacity:1;"><g transform="translate(29.752069, 210.496235)"><path style="stroke:none" d="M 115.453125 46.8125 C 104.046875 51.914062 92.113281 55.515625 79.65625 57.609375 C 67.207031 59.710938 54.753906 59.710938 42.296875 57.609375 C 29.847656 55.515625 17.847656 50.789062 6.296875 43.4375 C 2.703125 41.03125 0.675781 38.550781 0.21875 36 C -0.226562 33.457031 0.332031 31.25 1.90625 29.375 C 3.488281 27.5 5.59375 26.410156 8.21875 26.109375 C 10.84375 25.804688 13.429688 26.78125 15.984375 29.03125 C 26.929688 38.632812 38.101562 45.160156 49.5 48.609375 C 60.90625 52.054688 72.046875 53.101562 82.921875 51.75 C 93.804688 50.40625 103.75 47.410156 112.75 42.765625 C 121.601562 38.253906 129.628906 32.546875 136.828125 25.640625 C 144.023438 18.742188 150.210938 11.207031 155.390625 3.03125 C 160.566406 -5.144531 164.429688 -13.503906 166.984375 -22.046875 C 169.535156 -30.597656 170.582031 -38.773438 170.125 -46.578125 C 169.675781 -54.378906 167.351562 -61.28125 163.15625 -67.28125 C 155.65625 -62.78125 148.113281 -59.03125 140.53125 -56.03125 C 132.957031 -53.03125 125.945312 -50.96875 119.5 -49.84375 C 113.050781 -48.71875 107.535156 -48.753906 102.953125 -49.953125 C 98.378906 -51.160156 95.34375 -53.789062 93.84375 -57.84375 C 92.34375 -61.59375 92.566406 -65.265625 94.515625 -68.859375 C 96.460938 -72.460938 99.648438 -75.726562 104.078125 -78.65625 C 108.503906 -81.582031 113.753906 -83.71875 119.828125 -85.0625 C 125.910156 -86.414062 132.476562 -86.789062 139.53125 -86.1875 C 146.582031 -85.59375 153.707031 -83.566406 160.90625 -80.109375 C 161.8125 -79.660156 162.710938 -79.210938 163.609375 -78.765625 C 164.503906 -78.316406 165.40625 -77.867188 166.3125 -77.421875 C 172.914062 -82.671875 179.140625 -88.332031 184.984375 -94.40625 C 190.835938 -100.476562 195.789062 -106.664062 199.84375 -112.96875 C 203.894531 -119.269531 206.519531 -125.304688 207.71875 -131.078125 C 208.914062 -136.859375 208.164062 -142 205.46875 -146.5 C 202.613281 -151 198.148438 -154.1875 192.078125 -156.0625 C 186.003906 -157.945312 179.066406 -158.660156 171.265625 -158.203125 C 163.460938 -157.753906 155.394531 -156.441406 147.0625 -154.265625 C 138.738281 -152.085938 130.898438 -149.273438 123.546875 -145.828125 C 113.347656 -141.179688 105.359375 -135.59375 99.578125 -129.0625 C 93.804688 -122.539062 91.894531 -115.976562 93.84375 -109.375 C 95.488281 -103.820312 98.863281 -99.921875 103.96875 -97.671875 C 109.070312 -95.421875 115.675781 -95.269531 123.78125 -97.21875 C 128.425781 -98.269531 132.359375 -100.03125 135.578125 -102.5 C 138.804688 -104.976562 141.804688 -107.90625 144.578125 -111.28125 C 147.359375 -114.65625 150.398438 -118.21875 153.703125 -121.96875 C 156.410156 -125.125 159.078125 -126.703125 161.703125 -126.703125 C 164.328125 -126.703125 166.390625 -125.722656 167.890625 -123.765625 C 169.390625 -121.816406 169.953125 -119.492188 169.578125 -116.796875 C 169.203125 -114.097656 167.363281 -111.472656 164.0625 -108.921875 C 157.90625 -104.273438 151.113281 -100.488281 143.6875 -97.5625 C 136.257812 -94.632812 128.757812 -92.53125 121.1875 -91.25 C 113.613281 -89.976562 106.488281 -89.566406 99.8125 -90.015625 C 93.132812 -90.460938 87.503906 -91.8125 82.921875 -94.0625 C 78.347656 -96.3125 75.3125 -99.460938 73.8125 -103.515625 C 71.257812 -110.867188 71.785156 -117.847656 75.390625 -124.453125 C 78.992188 -131.054688 84.617188 -137.019531 92.265625 -142.34375 C 99.921875 -147.664062 108.625 -152.050781 118.375 -155.5 C 127.226562 -158.65625 136.34375 -161.054688 145.71875 -162.703125 C 155.09375 -164.359375 164.054688 -165 172.609375 -164.625 C 181.160156 -164.25 188.738281 -162.820312 195.34375 -160.34375 C 201.945312 -157.863281 206.820312 -154.078125 209.96875 -148.984375 C 213.863281 -142.679688 215.550781 -136.15625 215.03125 -129.40625 C 214.507812 -122.65625 212.257812 -115.941406 208.28125 -109.265625 C 204.300781 -102.585938 199.195312 -96.171875 192.96875 -90.015625 C 186.75 -83.867188 179.890625 -78.242188 172.390625 -73.140625 C 180.484375 -66.984375 185.582031 -59.742188 187.6875 -51.421875 C 189.789062 -43.097656 189.453125 -34.359375 186.671875 -25.203125 C 183.898438 -16.054688 179.097656 -6.984375 172.265625 2.015625 C 165.441406 11.023438 157.15625 19.429688 147.40625 27.234375 C 137.65625 35.035156 127.003906 41.5625 115.453125 46.8125 Z M 113.875 -61.21875 C 115.375 -57.613281 118.410156 -55.847656 122.984375 -55.921875 C 127.566406 -55.992188 133.046875 -57.492188 139.421875 -60.421875 C 145.796875 -63.347656 152.359375 -67.210938 159.109375 -72.015625 C 156.703125 -74.410156 154.148438 -76.4375 151.453125 -78.09375 C 146.503906 -81.09375 141.550781 -82.476562 136.59375 -82.25 C 131.644531 -82.03125 127.257812 -80.753906 123.4375 -78.421875 C 119.613281 -76.097656 116.765625 -73.320312 114.890625 -70.09375 C 113.015625 -66.875 112.675781 -63.914062 113.875 -61.21875 Z M 113.875 -61.21875 "/></g></g><g style="fill:#ffffff;fill-opacity:1;"><g transform="translate(145.574774, 315.303692)"><path style="stroke:none" d="M 48.59375 4.71875 C 47.394531 6.21875 45.96875 6.707031 44.3125 6.1875 C 42.664062 5.664062 42.59375 4.351562 44.09375 2.25 C 58.050781 -16.800781 71.476562 -34.5 84.375 -50.84375 C 97.269531 -67.195312 110.28125 -82.875 123.40625 -97.875 C 136.53125 -112.875 150.296875 -127.722656 164.703125 -142.421875 C 156.296875 -142.421875 147.628906 -143.429688 138.703125 -145.453125 C 129.785156 -147.484375 120.785156 -149.847656 111.703125 -152.546875 C 102.628906 -155.242188 93.742188 -157.644531 85.046875 -159.75 C 76.347656 -161.851562 68.0625 -162.941406 60.1875 -163.015625 C 52.3125 -163.085938 45.070312 -161.550781 38.46875 -158.40625 C 31.125 -154.800781 25.460938 -149.546875 21.484375 -142.640625 C 17.515625 -135.742188 15.675781 -127.421875 15.96875 -117.671875 C 16.269531 -111.523438 18.109375 -106.050781 21.484375 -101.25 C 24.859375 -96.445312 29.132812 -92.734375 34.3125 -90.109375 C 39.488281 -87.484375 44.773438 -86.25 50.171875 -86.40625 C 54.972656 -86.550781 59.472656 -88.046875 63.671875 -90.890625 C 67.867188 -93.742188 71.28125 -98.242188 73.90625 -104.390625 C 76.53125 -110.546875 77.84375 -118.648438 77.84375 -128.703125 C 77.84375 -131.847656 78.664062 -134.132812 80.3125 -135.5625 C 81.96875 -136.988281 83.804688 -137.585938 85.828125 -137.359375 C 87.859375 -137.140625 89.507812 -136.128906 90.78125 -134.328125 C 92.0625 -132.523438 92.398438 -129.898438 91.796875 -126.453125 C 89.992188 -116.546875 86.769531 -108.441406 82.125 -102.140625 C 77.476562 -95.847656 72.003906 -91.125 65.703125 -87.96875 C 59.398438 -84.820312 52.875 -83.023438 46.125 -82.578125 C 38.476562 -82.273438 31.128906 -83.546875 24.078125 -86.390625 C 17.023438 -89.242188 11.25 -93.445312 6.75 -99 C 2.25 -104.550781 0 -111.078125 0 -118.578125 C 0 -127.421875 3.410156 -135.367188 10.234375 -142.421875 C 17.054688 -149.472656 25.34375 -155.550781 35.09375 -160.65625 C 45.894531 -166.195312 56.546875 -169.53125 67.046875 -170.65625 C 77.546875 -171.78125 87.707031 -171.476562 97.53125 -169.75 C 107.363281 -168.03125 116.664062 -165.59375 125.4375 -162.4375 C 134.207031 -159.289062 142.304688 -156.21875 149.734375 -153.21875 C 157.160156 -150.21875 163.648438 -148.046875 169.203125 -146.703125 C 175.046875 -145.347656 181.457031 -145.269531 188.4375 -146.46875 C 195.414062 -147.675781 202.351562 -149.703125 209.25 -152.546875 C 211.800781 -153.597656 213.863281 -153.632812 215.4375 -152.65625 C 217.007812 -151.6875 217.945312 -150.222656 218.25 -148.265625 C 218.550781 -146.316406 218.0625 -144.441406 216.78125 -142.640625 C 215.507812 -140.847656 213.222656 -139.648438 209.921875 -139.046875 C 203.617188 -137.992188 197.207031 -138.03125 190.6875 -139.15625 C 184.164062 -140.28125 177.90625 -141.296875 171.90625 -142.203125 C 159.300781 -129.597656 147.597656 -116.320312 136.796875 -102.375 C 125.992188 -88.425781 115.378906 -73.3125 104.953125 -57.03125 C 94.535156 -40.757812 83.398438 -22.648438 71.546875 -2.703125 C 70.492188 -0.898438 69.066406 0.109375 67.265625 0.328125 C 65.472656 0.554688 63.488281 0.59375 61.3125 0.4375 C 59.132812 0.289062 56.921875 0.441406 54.671875 0.890625 C 52.421875 1.347656 50.394531 2.625 48.59375 4.71875 Z M 48.59375 4.71875 "/></g></g></g></svg>