<svg xmlns="http://www.w3.org/2000/svg" xmlns:xlink="http://www.w3.org/1999/xlink" width="500" zoomAndPan="magnify" viewBox="0 0 375 374.999991" height="500" preserveAspectRatio="xMidYMid meet" version="1.2"><defs/><g id="dc08649a3a"><g style="fill:#ffffff;fill-opacity:1;"><g transform="translate(54.245955, 357.005426)"><path style="stroke:none" d="M 246.40625 -335.25 L 255.984375 -290.59375 C 255.984375 -290.59375 255.28125 -291.679688 253.875 -293.859375 C 252.476562 -296.046875 249.753906 -298.8125 245.703125 -302.15625 C 241.648438 -305.507812 235.6875 -308.898438 227.8125 -312.328125 C 219.945312 -315.753906 209.582031 -318.710938 196.71875 -321.203125 C 183.863281 -323.703125 167.929688 -325.265625 148.921875 -325.890625 C 147.984375 -323.398438 147.203125 -320.242188 146.578125 -316.421875 C 145.953125 -312.609375 145.640625 -307.972656 145.640625 -302.515625 L 145.640625 -30.859375 C 145.640625 -21.660156 146.457031 -14.878906 148.09375 -10.515625 C 149.738281 -6.148438 151.335938 -3.34375 152.890625 -2.09375 C 154.453125 -0.851562 155.234375 -0.234375 155.234375 -0.234375 L 107.3125 -0.234375 C 107.3125 -0.234375 108.128906 -0.851562 109.765625 -2.09375 C 111.398438 -3.34375 113.035156 -6.1875 114.671875 -10.625 C 116.304688 -15.070312 117.125 -21.894531 117.125 -31.09375 L 117.125 -302.515625 C 117.125 -307.972656 116.769531 -312.609375 116.0625 -316.421875 C 115.363281 -320.242188 114.550781 -323.398438 113.625 -325.890625 C 94.445312 -325.421875 78.390625 -323.898438 65.453125 -321.328125 C 52.523438 -318.753906 42.082031 -315.753906 34.125 -312.328125 C 26.175781 -308.898438 20.175781 -305.507812 16.125 -302.15625 C 12.070312 -298.8125 9.34375 -296.046875 7.9375 -293.859375 C 6.539062 -291.679688 5.84375 -290.59375 5.84375 -290.59375 L 15.421875 -335.25 Z M 246.40625 -335.25 "/></g></g><g style="fill:#ffffff;fill-opacity:1;"><g transform="translate(94.841921, 357.643738)"><path style="stroke:none" d="M 7.828125 -23.671875 C 7.828125 -34.367188 9.847656 -44.054688 13.890625 -52.734375 C 17.929688 -61.410156 23.375 -69.269531 30.21875 -76.3125 C 37.070312 -83.363281 44.738281 -89.789062 53.21875 -95.59375 C 61.707031 -101.394531 70.515625 -106.742188 79.640625 -111.640625 C 88.773438 -116.535156 97.582031 -121.164062 106.0625 -125.53125 C 114.539062 -129.90625 122.203125 -134.210938 129.046875 -138.453125 C 135.898438 -142.691406 141.347656 -147.023438 145.390625 -151.453125 C 149.441406 -155.890625 151.46875 -160.585938 151.46875 -165.546875 C 151.46875 -170.117188 150.289062 -173.316406 147.9375 -175.140625 C 145.59375 -176.960938 143.050781 -177.875 140.3125 -177.875 C 132.738281 -177.875 125.5625 -176.601562 118.78125 -174.0625 C 112 -171.519531 105.570312 -168.351562 99.5 -164.5625 C 93.4375 -160.78125 87.566406 -156.96875 81.890625 -153.125 C 76.222656 -149.28125 70.613281 -146.082031 65.0625 -143.53125 C 59.519531 -140.988281 53.941406 -139.71875 48.328125 -139.71875 C 43.503906 -139.71875 40.175781 -141.25 38.34375 -144.3125 C 36.519531 -147.382812 35.609375 -150.550781 35.609375 -153.8125 C 35.609375 -157.988281 37.726562 -162.878906 41.96875 -168.484375 C 46.207031 -174.097656 51.785156 -180.132812 58.703125 -186.59375 C 65.617188 -193.050781 73.21875 -199.703125 81.5 -206.546875 C 89.789062 -213.398438 98.078125 -220.25 106.359375 -227.09375 C 114.640625 -233.945312 122.238281 -240.535156 129.15625 -246.859375 C 136.070312 -253.179688 141.648438 -259.050781 145.890625 -264.46875 C 150.128906 -269.882812 152.25 -274.550781 152.25 -278.46875 C 141.15625 -278.46875 131.300781 -278.53125 122.6875 -278.65625 C 114.082031 -278.789062 106.253906 -278.789062 99.203125 -278.65625 C 92.160156 -278.53125 85.476562 -278.140625 79.15625 -277.484375 C 72.832031 -276.828125 66.40625 -275.75 59.875 -274.25 C 53.351562 -272.75 46.304688 -270.691406 38.734375 -268.078125 C 31.171875 -265.472656 22.628906 -262.085938 13.109375 -257.921875 L 13.109375 -282.765625 L 177.484375 -282.765625 C 177.484375 -274.679688 175.234375 -267.242188 170.734375 -260.453125 C 166.234375 -253.671875 160.296875 -247.3125 152.921875 -241.375 C 145.554688 -235.445312 137.46875 -229.875 128.65625 -224.65625 C 119.851562 -219.4375 111.046875 -214.347656 102.234375 -209.390625 C 93.429688 -204.429688 85.34375 -199.472656 77.96875 -194.515625 C 70.601562 -189.554688 64.671875 -184.5 60.171875 -179.34375 C 55.671875 -174.195312 53.421875 -168.75 53.421875 -163 C 53.421875 -160 53.972656 -157.097656 55.078125 -154.296875 C 56.191406 -151.492188 58.179688 -150.09375 61.046875 -150.09375 C 64.578125 -150.09375 68.785156 -151.332031 73.671875 -153.8125 C 78.566406 -156.289062 83.945312 -159.390625 89.8125 -163.109375 C 95.6875 -166.828125 101.882812 -170.507812 108.40625 -174.15625 C 114.925781 -177.8125 121.613281 -180.878906 128.46875 -183.359375 C 135.320312 -185.835938 142.140625 -187.078125 148.921875 -187.078125 C 153.742188 -187.078125 158.015625 -185.804688 161.734375 -183.265625 C 165.453125 -180.722656 167.3125 -176.710938 167.3125 -171.234375 C 167.3125 -166.015625 165.382812 -161.054688 161.53125 -156.359375 C 157.6875 -151.660156 152.503906 -147.09375 145.984375 -142.65625 C 139.460938 -138.21875 132.125 -133.71875 123.96875 -129.15625 C 115.8125 -124.59375 107.394531 -119.796875 98.71875 -114.765625 C 90.050781 -109.742188 81.640625 -104.332031 73.484375 -98.53125 C 65.328125 -92.726562 57.988281 -86.332031 51.46875 -79.34375 C 44.945312 -72.363281 39.757812 -64.664062 35.90625 -56.25 C 32.0625 -47.84375 30.140625 -38.550781 30.140625 -28.375 C 30.140625 -21.195312 30.921875 -15.320312 32.484375 -10.75 C 34.046875 -6.1875 35.875 -3.90625 37.96875 -3.90625 C 53.75 -3.90625 69.660156 -4.882812 85.703125 -6.84375 C 101.753906 -8.800781 117.378906 -11.34375 132.578125 -14.46875 C 147.773438 -17.601562 162.03125 -20.800781 175.34375 -24.0625 L 175.34375 0 L 10.765625 0 C 9.460938 -4.039062 8.644531 -7.820312 8.3125 -11.34375 C 7.988281 -14.875 7.828125 -18.984375 7.828125 -23.671875 Z M 7.828125 -23.671875 "/></g></g></g></svg>